<?xml version="1.0" encoding="UTF-8"?>
<svg xmlns="http://www.w3.org/2000/svg" xmlns:xlink="http://www.w3.org/1999/xlink" width="2640" height="2640" viewBox="0 0 2640 2640">
<rect x="-264" y="-264" width="3168" height="3168" fill="rgb(91.796875%, 95.701599%, 96.484375%)" fill-opacity="1"/>
<path fill-rule="nonzero" fill="rgb(0%, 0%, 0%)" fill-opacity="1" d="M 1138.289062 1773.945312 C 1146.011719 1774.035156 1152.199219 1780.367188 1152.109375 1788.085938 C 1152.019531 1795.804688 1145.679688 1801.992188 1137.960938 1801.898438 C 1068.199219 1800.875 1002.089844 1797.59375 945.398438 1794.777344 C 897.289062 1792.390625 856.03125 1790.34375 824.933594 1790.34375 C 800.785156 1790.34375 780.128906 1780.722656 764.597656 1765.191406 C 748.519531 1749.117188 738.09375 1726.644531 735.238281 1702.128906 L 669.566406 1138.011719 C 669.222656 1135.03125 669.050781 1132.179688 669.050781 1129.460938 C 669.050781 1107.839844 678.566406 1088.328125 693.488281 1073.648438 C 708.007812 1059.378906 727.769531 1049.679688 748.78125 1047.238281 C 752.339844 1046.828125 755.84375 1046.609375 759.261719 1046.609375 L 1357.058594 1046.609375 C 1381.769531 1046.609375 1404.230469 1056.710938 1420.5 1072.980469 C 1436.769531 1089.25 1446.871094 1111.710938 1446.871094 1136.421875 C 1446.871094 1192.859375 1454.160156 1282.25 1478.808594 1349.488281 C 1489.800781 1379.449219 1504.078125 1404.691406 1522.449219 1419.820312 C 1539.390625 1433.78125 1560.519531 1439.089844 1586.769531 1431.109375 C 1607.28125 1424.878906 1630.910156 1410.839844 1658.089844 1387.078125 C 1635.011719 1364.949219 1618.589844 1337.539062 1609.730469 1307.878906 C 1599.371094 1273.21875 1599.328125 1235.46875 1611.050781 1199.449219 C 1612.871094 1193.871094 1617.859375 1190.199219 1623.371094 1189.808594 C 1641.710938 1187.5 1660.019531 1189.480469 1676.980469 1195.308594 C 1694.199219 1201.230469 1710.089844 1211.121094 1723.25 1224.519531 C 1736.378906 1237.878906 1745.988281 1253.96875 1751.628906 1271.351562 C 1754.519531 1280.300781 1756.371094 1289.578125 1757.089844 1299 C 1787.550781 1284.101562 1820.929688 1278.070312 1853.640625 1280.628906 C 1894.679688 1283.851562 1934.660156 1300.609375 1966.480469 1330.351562 C 1972.140625 1335.609375 1972.460938 1344.480469 1967.199219 1350.140625 C 1966.980469 1350.371094 1966.761719 1350.589844 1966.53125 1350.800781 C 1936.730469 1380.878906 1900.75 1403.078125 1861.75 1416.328125 C 1827.820312 1427.859375 1791.578125 1432.628906 1755.121094 1429.921875 C 1756.78125 1476.96875 1748.929688 1523.410156 1732.539062 1566.628906 C 1714.199219 1615 1685.179688 1659.3125 1646.839844 1695.945312 C 1610.050781 1731.105469 1556.800781 1755.210938 1494.328125 1771.421875 C 1433.019531 1787.328125 1362.691406 1795.695312 1290.441406 1799.519531 C 1282.71875 1799.910156 1276.140625 1793.972656 1275.75 1786.253906 C 1275.351562 1778.535156 1281.289062 1771.957031 1289.011719 1771.5625 C 1359.601562 1767.828125 1428.058594 1759.714844 1487.308594 1744.339844 C 1545.390625 1729.269531 1594.460938 1707.285156 1627.550781 1675.664062 C 1662.789062 1641.988281 1689.480469 1601.238281 1706.339844 1556.769531 C 1723.199219 1512.300781 1730.230469 1464.070312 1726.171875 1415.421875 L 1726.199219 1415.421875 C 1726.121094 1414.429688 1726.140625 1413.421875 1726.28125 1412.398438 C 1727.300781 1404.738281 1734.351562 1399.371094 1742.011719 1400.398438 C 1779.75 1405.601562 1817.628906 1401.738281 1852.761719 1389.800781 C 1883.21875 1379.449219 1911.609375 1363.03125 1936.039062 1341.179688 C 1911.128906 1321.929688 1881.628906 1310.960938 1851.449219 1308.589844 C 1816.660156 1305.859375 1780.980469 1314.570312 1750.371094 1335.191406 C 1747.519531 1337.21875 1743.898438 1338.191406 1740.160156 1337.628906 C 1732.511719 1336.480469 1727.230469 1329.328125 1728.378906 1321.679688 C 1730.53125 1307.441406 1729.28125 1293.160156 1724.988281 1279.898438 C 1720.691406 1266.648438 1713.351562 1254.371094 1703.300781 1244.140625 C 1693.28125 1233.949219 1681.109375 1226.378906 1667.878906 1221.839844 C 1657.410156 1218.238281 1646.308594 1216.539062 1635.121094 1216.910156 C 1627.871094 1244.679688 1628.660156 1273.339844 1636.589844 1299.878906 C 1645.328125 1329.140625 1662.761719 1355.808594 1687.648438 1375.820312 C 1688.230469 1376.269531 1688.78125 1376.761719 1689.300781 1377.308594 C 1694.589844 1382.941406 1694.320312 1391.800781 1688.691406 1397.101562 C 1653.378906 1430.308594 1622.261719 1449.539062 1594.878906 1457.859375 C 1558.460938 1468.941406 1528.78125 1461.269531 1504.691406 1441.421875 C 1482.03125 1422.75 1465.058594 1393.371094 1452.5 1359.140625 C 1426.488281 1288.210938 1418.800781 1195.039062 1418.800781 1136.421875 C 1418.800781 1119.449219 1411.851562 1104.019531 1400.648438 1092.820312 C 1389.460938 1081.628906 1374.019531 1074.679688 1357.058594 1074.679688 L 759.261719 1074.679688 C 756.71875 1074.679688 754.277344 1074.820312 751.960938 1075.089844 C 737.171875 1076.808594 723.285156 1083.601562 713.113281 1093.609375 C 703.34375 1103.210938 697.117188 1115.769531 697.117188 1129.460938 C 697.117188 1131.328125 697.214844 1133.121094 697.414062 1134.828125 L 763.085938 1698.945312 C 765.203125 1717.164062 772.792969 1733.699219 784.441406 1745.351562 C 794.894531 1755.804688 808.761719 1762.277344 824.933594 1762.277344 C 855.144531 1762.277344 897.417969 1764.375 946.710938 1766.824219 C 1003.589844 1769.644531 1069.929688 1772.9375 1138.289062 1773.945312 "/>
<path fill-rule="nonzero" fill="rgb(0%, 0%, 0%)" fill-opacity="1" d="M 1086.320312 1687.230469 C 1085.53125 1679.539062 1091.128906 1672.667969 1098.820312 1671.878906 C 1106.511719 1671.09375 1113.378906 1676.6875 1114.171875 1684.378906 C 1119.390625 1733.644531 1144.050781 1776.179688 1179.730469 1805.148438 C 1211.648438 1831.066406 1252.421875 1846.113281 1296.011719 1845.394531 C 1289 1814.617188 1276.621094 1785.601562 1259.671875 1759.582031 C 1239.949219 1729.328125 1214 1703.085938 1183.078125 1682.800781 C 1176.601562 1678.5625 1174.789062 1669.875 1179.019531 1663.394531 C 1183.261719 1656.917969 1191.949219 1655.101562 1198.429688 1659.339844 C 1232.558594 1681.730469 1261.261719 1710.785156 1283.128906 1744.34375 C 1304.96875 1777.859375 1319.949219 1815.835938 1326.648438 1856.105469 L 1326.640625 1856.105469 C 1326.691406 1856.410156 1326.730469 1856.722656 1326.761719 1857.035156 C 1327.519531 1864.722656 1321.898438 1871.570312 1314.210938 1872.328125 C 1257.261719 1878.117188 1203.308594 1860.328125 1162.078125 1826.855469 C 1120.851562 1793.382812 1092.359375 1744.210938 1086.320312 1687.230469 "/>
<path fill-rule="evenodd" fill="rgb(70.896912%, 74.804688%, 81.639099%)" fill-opacity="1" d="M 1086.320312 1687.230469 C 1085.53125 1679.539062 1091.128906 1672.667969 1098.820312 1671.878906 C 1106.511719 1671.09375 1113.378906 1676.6875 1114.171875 1684.378906 C 1119.390625 1733.644531 1144.050781 1776.179688 1179.730469 1805.148438 C 1211.648438 1831.066406 1252.421875 1846.113281 1296.011719 1845.394531 C 1291.96875 1827.644531 1286.140625 1810.476562 1278.679688 1794.136719 C 1277.429688 1792.53125 1276.519531 1790.644531 1276.058594 1788.574219 C 1271.199219 1778.566406 1265.730469 1768.882812 1259.671875 1759.582031 C 1239.949219 1729.328125 1214 1703.085938 1183.078125 1682.800781 C 1176.601562 1678.5625 1174.789062 1669.875 1179.019531 1663.394531 C 1183.261719 1656.917969 1191.949219 1655.101562 1198.429688 1659.339844 C 1232.558594 1681.730469 1261.261719 1710.785156 1283.128906 1744.34375 C 1288.738281 1752.957031 1293.898438 1761.863281 1298.578125 1771.03125 C 1365.78125 1767.078125 1430.75 1759.019531 1487.308594 1744.339844 C 1545.390625 1729.269531 1594.460938 1707.285156 1627.550781 1675.664062 C 1662.789062 1641.988281 1689.480469 1601.238281 1706.339844 1556.769531 C 1723.199219 1512.300781 1730.230469 1464.070312 1726.171875 1415.421875 L 1726.199219 1415.421875 C 1726.121094 1414.429688 1726.140625 1413.421875 1726.28125 1412.398438 C 1727.300781 1404.738281 1734.351562 1399.371094 1742.011719 1400.398438 C 1779.75 1405.601562 1817.628906 1401.738281 1852.761719 1389.800781 C 1883.21875 1379.449219 1911.609375 1363.03125 1936.039062 1341.179688 C 1911.128906 1321.929688 1881.628906 1310.960938 1851.449219 1308.589844 C 1816.660156 1305.859375 1780.980469 1314.570312 1750.371094 1335.191406 C 1747.519531 1337.21875 1743.898438 1338.191406 1740.160156 1337.628906 C 1732.511719 1336.480469 1727.230469 1329.328125 1728.378906 1321.679688 C 1730.53125 1307.441406 1729.28125 1293.160156 1724.988281 1279.898438 C 1720.691406 1266.648438 1713.351562 1254.371094 1703.300781 1244.140625 C 1693.28125 1233.949219 1681.109375 1226.378906 1667.878906 1221.839844 C 1657.410156 1218.238281 1646.308594 1216.539062 1635.121094 1216.910156 C 1627.871094 1244.679688 1628.660156 1273.339844 1636.589844 1299.878906 C 1645.328125 1329.140625 1662.761719 1355.808594 1687.648438 1375.820312 C 1688.230469 1376.269531 1688.78125 1376.761719 1689.300781 1377.308594 C 1694.589844 1382.941406 1694.320312 1391.800781 1688.691406 1397.101562 C 1653.378906 1430.308594 1622.261719 1449.539062 1594.878906 1457.859375 C 1558.460938 1468.941406 1528.78125 1461.269531 1504.691406 1441.421875 C 1482.03125 1422.75 1465.058594 1393.371094 1452.5 1359.140625 C 1426.488281 1288.210938 1418.800781 1195.039062 1418.800781 1136.421875 C 1418.800781 1119.449219 1411.851562 1104.019531 1400.648438 1092.820312 C 1389.460938 1081.628906 1374.019531 1074.679688 1357.058594 1074.679688 L 759.261719 1074.679688 C 756.71875 1074.679688 754.277344 1074.820312 751.960938 1075.089844 C 737.171875 1076.808594 723.285156 1083.601562 713.113281 1093.609375 C 703.34375 1103.210938 697.117188 1115.769531 697.117188 1129.460938 C 697.117188 1131.328125 697.214844 1133.121094 697.414062 1134.828125 L 763.085938 1698.945312 C 765.203125 1717.164062 772.792969 1733.699219 784.441406 1745.351562 C 794.894531 1755.804688 808.761719 1762.277344 824.933594 1762.277344 C 855.144531 1762.277344 897.417969 1764.375 946.710938 1766.824219 C 997.234375 1769.328125 1055.21875 1772.207031 1115.449219 1773.527344 C 1099.941406 1748.0625 1089.671875 1718.847656 1086.320312 1687.230469 "/>
<path fill-rule="evenodd" fill="rgb(91.796875%, 95.701599%, 96.484375%)" fill-opacity="1" d="M 1283.128906 1744.34375 C 1288.738281 1752.957031 1293.898438 1761.863281 1298.578125 1771.03125 C 1365.78125 1767.078125 1430.75 1759.019531 1487.308594 1744.339844 C 1545.390625 1729.269531 1594.460938 1707.285156 1627.550781 1675.664062 C 1648.121094 1656.007812 1665.78125 1633.941406 1680.269531 1610.121094 C 1583.808594 1709.027344 1447.519531 1748.203125 1271.410156 1727.648438 C 1275.511719 1733.078125 1279.421875 1738.644531 1283.128906 1744.34375 Z M 1115.449219 1773.527344 C 1100.148438 1748.40625 1089.949219 1719.636719 1086.460938 1688.503906 C 983.292969 1658.132812 869.75 1612.191406 745.824219 1550.691406 L 763.085938 1698.945312 C 765.203125 1717.164062 772.792969 1733.699219 784.441406 1745.351562 C 794.894531 1755.804688 808.761719 1762.277344 824.933594 1762.277344 C 855.144531 1762.277344 897.417969 1764.375 946.710938 1766.824219 C 997.234375 1769.328125 1055.21875 1772.207031 1115.449219 1773.527344 "/>
<path fill-rule="evenodd" fill="rgb(79.6875%, 83.201599%, 83.984375%)" fill-opacity="1" d="M 1283.128906 1744.34375 C 1285.289062 1747.65625 1287.378906 1751.011719 1289.398438 1754.40625 C 1396.679688 1763.285156 1491.371094 1749.453125 1573.480469 1712.910156 C 1594.339844 1702.296875 1612.578125 1689.96875 1627.550781 1675.664062 C 1634.890625 1668.652344 1641.851562 1661.335938 1648.441406 1653.742188 C 1549.601562 1725.035156 1426.761719 1753.613281 1279.890625 1739.488281 C 1280.988281 1741.097656 1282.070312 1742.714844 1283.128906 1744.34375 Z M 763.175781 1699.695312 C 811.792969 1724.082031 858.898438 1745.773438 904.488281 1764.765625 C 890.460938 1764.113281 877.273438 1763.546875 865.089844 1763.117188 C 833.1875 1749.128906 800.582031 1733.882812 767.277344 1717.367188 C 765.328125 1711.753906 763.941406 1705.824219 763.175781 1699.695312 Z M 746.726562 1558.421875 C 869.972656 1622.710938 983.804688 1670.203125 1088.21875 1700.90625 C 1089.128906 1706.160156 1090.230469 1711.339844 1091.511719 1716.433594 C 986.605469 1686.226562 872.328125 1639.148438 748.679688 1575.191406 Z M 751.050781 1595.578125 C 876.390625 1659.980469 991.875 1706.796875 1097.5 1736.027344 C 1099.5 1741.59375 1101.730469 1747.035156 1104.179688 1752.355469 C 997.140625 1723.703125 880.074219 1677.007812 752.996094 1612.28125 Z M 754.820312 1627.941406 C 885.578125 1695.304688 1005.628906 1743.574219 1114.980469 1772.742188 L 1115.449219 1773.527344 C 1097.320312 1773.128906 1079.390625 1772.589844 1061.808594 1771.964844 C 967.488281 1742.78125 865.808594 1700.347656 756.765625 1644.65625 Z M 759.652344 1669.480469 C 838.949219 1709.675781 914.253906 1742.757812 985.570312 1768.726562 C 972.214844 1768.089844 959.234375 1767.445312 946.710938 1766.824219 L 940.230469 1766.5 C 883.089844 1744.039062 823.546875 1717.246094 761.589844 1686.117188 L 759.652344 1669.480469 "/>
<path fill-rule="evenodd" fill="rgb(0%, 0%, 0%)" fill-opacity="1" d="M 993.113281 1299.390625 C 1062.21875 1309.550781 1107.980469 1387.519531 1095.320312 1473.539062 C 1082.671875 1559.558594 1016.398438 1621.058594 947.296875 1610.890625 C 878.195312 1600.730469 832.433594 1522.761719 845.085938 1436.738281 C 857.738281 1350.71875 924.011719 1289.230469 993.113281 1299.390625 "/>
<path fill-rule="evenodd" fill="rgb(87.889099%, 68.943787%, 68.943787%)" fill-opacity="1" d="M 994.039062 1326.390625 C 1051.160156 1334.789062 1088.988281 1399.238281 1078.53125 1470.351562 C 1068.070312 1541.460938 1013.289062 1592.300781 956.160156 1583.890625 C 899.039062 1575.488281 861.207031 1511.039062 871.667969 1439.929688 C 874.992188 1417.328125 882.796875 1396.789062 893.726562 1379.53125 C 886.667969 1392.75 881.609375 1407.800781 879.214844 1424.058594 C 870.105469 1486 903.054688 1542.140625 952.808594 1549.460938 C 1002.558594 1556.769531 1050.28125 1512.5 1059.390625 1450.570312 C 1068.25 1390.308594 1037.300781 1335.539062 989.792969 1325.878906 C 991.207031 1326.019531 992.621094 1326.179688 994.039062 1326.390625 "/>
<path fill-rule="evenodd" fill="rgb(100%, 100%, 100%)" fill-opacity="1" d="M 954.351562 1336.460938 C 970.898438 1338.890625 981.855469 1357.570312 978.828125 1378.171875 C 975.796875 1398.761719 959.925781 1413.488281 943.378906 1411.058594 C 926.832031 1408.621094 915.871094 1389.949219 918.902344 1369.351562 C 921.933594 1348.75 937.804688 1334.03125 954.351562 1336.460938 "/>
<path fill-rule="evenodd" fill="rgb(55.664062%, 91.40625%, 100%)" fill-opacity="1" d="M 1179.160156 897.53125 C 1209.648438 929.519531 1223.640625 973.808594 1217.050781 1017.511719 C 1212.28125 980.070312 1194.039062 949.199219 1162.320312 924.898438 C 1157.28125 919.390625 1156.488281 911.210938 1160.410156 904.851562 C 1164.320312 898.5 1171.980469 895.511719 1179.160156 897.53125 Z M 1274.941406 776.171875 C 1240.480469 795.699219 1221.761719 834.570312 1227.980469 873.691406 C 1237.46875 843.429688 1260.75 819.449219 1290.71875 809.058594 C 1296.339844 803.210938 1297.738281 794.46875 1294.230469 787.148438 C 1290.71875 779.828125 1283.03125 775.460938 1274.941406 776.171875 Z M 1156.011719 768.078125 C 1205.488281 792.910156 1229.589844 850.019531 1212.839844 902.789062 C 1203.96875 856.050781 1173.53125 816.25 1130.75 795.441406 C 1126.988281 788.039062 1128.230469 779.078125 1133.859375 772.980469 C 1139.488281 766.878906 1148.328125 764.929688 1156.011719 768.078125 Z M 1267.570312 867.011719 C 1230.519531 894.75 1214.578125 942.570312 1227.570312 986.988281 C 1234.101562 950.511719 1257.519531 919.269531 1290.71875 902.789062 C 1296.371094 895.171875 1296.699219 884.839844 1291.539062 876.878906 C 1286.390625 868.910156 1276.828125 864.980469 1267.570312 867.011719 "/>
</svg>
